<?xml version="1.0" encoding="UTF-8" ?>
<!DOCTYPE svg PUBLIC "-//W3C//DTD SVG 1.1//EN" "http://www.w3.org/Graphics/SVG/1.1/DTD/svg11.dtd">
<svg width="285pt" height="176pt" viewBox="0 0 285 176" version="1.1" xmlns="http://www.w3.org/2000/svg">
<g id="#ffffffff">
</g>
<g id="#000000ff">
<path fill="#000000" opacity="1.00" d=" M 209.92 17.90 C 214.01 12.42 220.01 8.18 226.75 6.84 C 229.16 9.46 231.59 12.13 235.07 13.33 C 234.61 15.13 234.19 16.94 233.80 18.76 C 226.77 18.41 217.97 19.37 214.47 26.47 C 207.70 40.09 206.92 55.65 202.49 70.04 C 200.12 79.79 196.64 89.28 192.02 98.19 C 189.15 102.51 187.70 107.52 185.25 112.05 C 181.06 120.32 177.81 129.35 177.56 138.68 C 179.31 144.28 183.56 148.99 184.02 155.03 C 184.21 158.55 186.07 161.58 187.66 164.62 C 183.93 165.93 179.30 165.78 176.73 162.36 C 175.38 158.99 176.58 155.10 175.16 151.73 C 173.89 148.98 171.73 146.80 169.71 144.59 C 169.44 149.72 169.04 154.95 170.11 160.03 C 170.46 162.62 173.04 163.85 174.81 165.41 C 174.69 165.91 174.44 166.89 174.32 167.39 C 170.49 167.72 166.65 167.78 162.82 167.79 C 161.54 163.44 162.85 158.85 161.58 154.52 C 160.32 150.20 159.31 145.75 159.40 141.23 C 159.32 138.04 161.09 135.25 162.12 132.34 C 158.77 133.07 155.47 134.21 152.02 134.30 C 148.04 134.16 144.11 133.31 140.12 133.54 C 136.72 133.75 133.31 133.78 129.93 133.28 C 129.41 142.23 124.92 150.20 122.78 158.76 C 125.50 160.70 128.20 162.68 130.65 164.96 C 125.60 165.74 120.35 165.95 115.39 164.64 C 111.46 162.93 107.85 160.51 103.67 159.40 C 104.55 150.73 110.15 143.80 112.97 135.80 C 105.78 135.34 98.39 134.47 91.37 136.60 C 85.74 138.40 79.78 138.46 73.96 139.13 C 64.92 140.00 55.98 141.67 46.97 142.74 C 41.62 143.65 36.03 144.43 30.72 142.84 C 24.78 141.11 18.58 141.52 12.49 141.64 C 16.10 138.07 21.31 138.42 25.98 138.58 C 36.76 139.07 47.16 135.74 57.57 133.48 C 65.61 130.74 72.99 126.33 80.57 122.54 C 87.39 119.40 92.69 113.90 99.10 110.10 C 104.71 106.85 109.39 102.18 115.30 99.40 C 120.19 97.12 124.90 94.27 130.21 93.05 C 137.64 91.16 144.98 88.72 152.64 87.93 C 158.64 87.32 164.53 85.47 170.61 85.80 C 173.21 85.83 176.27 86.39 178.31 84.31 C 183.08 79.63 187.46 74.40 190.26 68.28 C 193.56 62.59 194.32 55.95 196.71 49.90 C 198.98 44.13 199.58 37.82 202.32 32.21 C 204.73 27.38 206.40 22.09 209.92 17.90 M 111.85 157.51 C 112.85 157.97 113.86 158.43 114.86 158.90 C 114.84 157.20 114.80 155.51 114.77 153.82 C 113.84 155.08 112.87 156.31 111.85 157.51 Z" />
</g>
</svg>
